<svg width="100" height="100" xmlns="http://www.w3.org/2000/svg"><path style="fill:#5d4d00" d="M67.231 82.651c-5.87 3.089-14.034 9.912-16.717 12.155l-.42.349-.187.001-.426-.354C46.8 92.56 38.635 85.739 32.77 82.652c-6.926-3.648-6.839-12.723-6.836-12.827V37.23h48.135v32.61c0 .09.088 9.165-6.837 12.812m8.196-12.826V35.867H24.573v33.945c-.01.405-.117 10.001 7.563 14.042 5.738 3.02 13.79 9.807 16.473 11.992l1.39 1.133 1.388-1.13c2.684-2.185 10.735-8.973 16.479-11.995 7.677-4.04 7.57-13.637 7.561-14.029"/><path style="fill:#5d4d00" d="M65.012 78.26c-3.818 2.009-8.732 5.483-15.013 10.613-6.28-5.13-11.193-8.604-15.01-10.612-4.24-2.233-4.291-8.484-4.291-8.546V41.82h38.604l.001 27.929c0 .061-.063 6.287-4.291 8.513M29.337 40.456l-.002 29.26c0 .29.058 7.137 5.02 9.747 3.82 2.014 8.797 5.55 15.213 10.816l.431.355.434-.355c6.415-5.266 11.391-8.802 15.214-10.816 4.961-2.61 5.018-9.425 5.018-9.715V40.456zM50 19.733c.233.397.511.7.876.966-.365.265-.643.57-.876.964a3.094 3.094 0 0 0-.877-.964c.365-.265.643-.569.877-.966m0 6.623c.292.56.596 1.349.596 2.219 0 .862-.304 1.654-.596 2.217-.292-.563-.595-1.355-.595-2.217 0-.87.302-1.66.593-2.22zm0 6.783.528-.645c.058-.072 1.429-1.774 1.429-3.92 0-2.674-3.547-5.457.614-7.25l.84-.362c1.567 1.115 3.828 1.141 5.588 1.847 2.255.905 3.933 3.362 4.057 5.793.192 3.714-4.808 4.894-7.298 2.243-2.314-2.465-.039-5.227 1.777-4.242.524.283.92.87.665 1.44a.68.68 0 0 0 1.244.555c.521-1.172-.01-2.515-1.26-3.191-3.15-1.709-6.817 2.748-3.418 6.37 3.37 3.589 9.907 1.727 9.65-3.244-.05-.972-.376-2.005-.884-2.984 1.746 1.498 2.833 2.631 5.262 2.631 4.807.64 9.109 2.928 12.036 4.49 1.3.693 2.324 1.242 3.038 1.445 3.383.969 3.18-3.429 1.007-3.429-.944 0-1.657.82-1.535 1.75a51.982 51.982 0 0 1-1.87-.967c-2.424-1.294-5.763-3.071-9.598-4.069 3.127-1.876 1.792-7.587-2.018-7.416-1.639.074-3.196 1.298-3.212 3.357-.018 1.995 2.49 3.042 3.824 1.934.443-.366.608-.912.454-1.496a.682.682 0 0 0-1.317.346c.016.06.01.086.01.086-.155.27-1.62.2-1.61-.86.01-1.236.946-1.991 1.938-2.017 2.36-.059 3.124 3.803 1.271 4.877-3.665 2.122-6.025-1.395-8.713-3.185-2.083-1.39-3.695-1.723-6.084-2.266-3.371-.77-3.371-2.533-3.371-3.114 0-2.631 2.5-4.142 4.047-2.456.936 1.02.226 2.794-1.205 2.724-.408-.022-.775-.177-.878-.407-.091-.206.135-.374.331-.114a.68.68 0 0 0 1.115-.782c-.05-.07-.5-.692-1.223-.71-1-.048-1.92 1.217-1.443 2.185.36.731 1.147 1.135 1.984 1.19 2.566.17 4.05-2.899 2.425-4.876-2.237-2.725-6.514-.833-6.514 3.246 0 .742.177 1.589.748 2.365-3.932-1.764-1.07-7.147 2.194-8.554l1.451-.625-1.45-.626C50.973 8.633 50.98 6.446 50 3.021c-.982 3.424-.975 5.612-4.626 7.185l-1.451.626 1.45.625c3.265 1.407 6.129 6.79 2.196 8.554.571-.776.749-1.623.749-2.365 0-4.079-4.278-5.971-6.516-3.246-1.623 1.977-.141 5.047 2.426 4.876.837-.055 1.624-.459 1.985-1.19.476-.968-.444-2.233-1.445-2.184-.723.017-1.173.639-1.221.709a.68.68 0 0 0 1.113.782c.196-.26.423-.092.331.114-.102.23-.47.385-.878.407-1.43.07-2.14-1.703-1.205-2.724 1.546-1.686 4.048-.175 4.048 2.456 0 .58 0 2.345-3.371 3.114-2.388.543-4.002.876-6.085 2.266-2.686 1.79-5.046 5.307-8.712 3.185-1.854-1.074-1.09-4.936 1.27-4.877.992.026 1.929.781 1.938 2.018.01 1.059-1.455 1.129-1.61.859 0 0-.006-.026.01-.086a.683.683 0 0 0-.484-.832.682.682 0 0 0-.833.486c-.153.584.011 1.13.454 1.496 1.334 1.108 3.842.06 3.824-1.934-.016-2.06-1.572-3.283-3.212-3.357-3.81-.17-5.145 5.54-2.017 7.416-3.836.998-7.174 2.775-9.6 4.069-.7.374-1.342.715-1.87.968a1.54 1.54 0 0 0-1.532-1.75c-2.174 0-2.378 4.397 1.006 3.428.713-.203 1.739-.752 3.037-1.445 2.929-1.562 7.23-3.85 12.037-4.49 2.43 0 3.516-1.133 5.261-2.63-.508.978-.833 2.011-.883 2.983-.258 4.97 6.28 6.833 9.65 3.243 3.398-3.621-.268-8.078-3.419-6.37-1.25.677-1.78 2.02-1.26 3.192a.682.682 0 0 0 1.244-.555c-.255-.57.141-1.157.666-1.44 1.816-.985 4.09 1.777 1.777 4.242-2.491 2.65-7.491 1.47-7.3-2.243.125-2.431 1.803-4.888 4.059-5.793 1.76-.706 4.02-.732 5.588-1.847l.839.363c4.162 1.792.614 4.575.614 7.25 0 2.145 1.371 3.847 1.43 3.92zm0-25.514c.643 1.565 1.413 2.438 2.794 3.207-1.381.768-2.151 1.643-2.794 3.205-.642-1.562-1.414-2.437-2.795-3.205 1.381-.77 2.153-1.642 2.795-3.207M30.86 32.098c.638-.4 1.066-1.026 1.33-1.53-.571.022-1.319.138-1.955.54-.636.401-1.066 1.028-1.328 1.531.572-.018 1.319-.138 1.954-.54m-1.352-2.143c1.663-1.047 3.698-.702 3.795-.686l.738.132-.2.722c-.024.084-.595 2.08-2.255 3.125-.987.624-2.11.757-2.877.757-.523 0-.878-.06-.917-.067l-.738-.13.201-.723c.023-.084.594-2.082 2.253-3.13m-8.307-5.669c-1.173-.357-2.482-.225-3.639.124.563.688 1.587 1.711 2.955 2.126 1.173.357 2.484.226 3.638-.122-.563-.69-1.586-1.713-2.954-2.128m-1.08 3.552c-2.638-.801-4.156-3.302-4.22-3.408l-.386-.643.678-.32c1.555-.732 3.733-.991 5.404-.483 2.638.802 4.156 3.302 4.22 3.409l.383.642-.676.323c-1.552.731-3.71.994-5.403.48m17.174-10.13c-.82-.555-1.818-.698-2.47-.727.276.625.776 1.473 1.59 2.025.817.555 1.811.699 2.465.727-.28-.627-.779-1.476-1.585-2.024m-1.645 2.423c-1.844-1.251-2.416-3.543-2.44-3.64l-.176-.728.742-.105c1.407-.184 3.107.128 4.281.924 1.845 1.25 2.415 3.543 2.44 3.639l.176.729-.743.104c-1.38.199-3.13-.142-4.28-.923M69.14 32.098c-.638-.4-1.066-1.026-1.33-1.53.571.022 1.319.138 1.955.54.636.401 1.066 1.028 1.329 1.531-.572-.018-1.318-.138-1.954-.54m1.351-2.143c-1.661-1.047-3.698-.702-3.794-.686l-.739.132.2.722c.024.084.595 2.08 2.255 3.125.987.624 2.11.757 2.877.757.524 0 .88-.06.917-.067l.74-.13-.203-.723c-.023-.084-.594-2.082-2.253-3.13m8.308-5.669c1.172-.357 2.48-.225 3.638.124-.563.688-1.587 1.711-2.955 2.126-1.172.357-2.484.226-3.637-.122.562-.69 1.585-1.713 2.954-2.128m1.08 3.552c2.637-.801 4.156-3.302 4.22-3.408l.385-.643-.678-.32c-1.553-.732-3.733-.991-5.403-.483-2.639.802-4.157 3.302-4.22 3.409l-.384.642.676.323c1.552.731 3.71.994 5.403.48M62.705 17.71c.819-.555 1.816-.698 2.47-.727-.278.625-.776 1.473-1.591 2.025-.816.555-1.812.699-2.466.727.28-.627.78-1.476 1.587-2.024m1.643 2.423c1.844-1.251 2.416-3.543 2.44-3.64l.177-.728-.743-.105c-1.407-.184-3.106.128-4.281.924-1.844 1.25-2.415 3.543-2.439 3.639l-.176.729.742.104c1.38.199 3.132-.142 4.28-.923"/><path style="fill:#5d4d00" d="M56.48 61.087c0 3.69-.672 6.401-2.02 8.129-1.351 1.72-3.546 2.586-6.585 2.586H46.46v-21.34a39.034 39.034 0 0 1 3.325-.15c1.649 0 2.96.351 3.919 1.07.963.71 1.668 1.83 2.111 3.35.443 1.525.664 3.636.664 6.355m-7.137 12.815c4.595 0 7.991-1.043 10.187-3.122 2.198-2.086 3.293-5.266 3.293-9.543 0-4.394-1.05-7.666-3.148-9.81-2.1-2.145-5.28-3.222-9.53-3.222l-8.571.08h-4.395v1.394l3.286.516v21.817l-3.286.495v1.395zM13.541 40.514c.084.623.288 1.417.788 2.077.544.716 1.347 1.142 1.95 1.38-.068-.64-.262-1.527-.81-2.248-.59-.777-1.06-1.022-1.928-1.21m-3.09 11.295c.894-.056 1.693-.486 2.223-.857-.574-.3-1.414-.627-2.317-.57-.895.057-1.695.488-2.225.858.573.3 1.413.63 2.318.57M16.552 40.9c1.293 1.703 1.112 3.958 1.102 4.055l-.064.745-.737-.136c-.095-.019-2.316-.45-3.608-2.152-.891-1.174-1.08-2.613-1.112-3.424-1.063-.236-1.92-.01-2.432 1.018-.997 1.993 1.52 3.523 2.732 4.288 1.05.663 2.21 1.274 3.164 2.422 2.586 3.114 3.796 8.164 3.472 11.247-.047.449-.41.637-.746.6-.34-.035-.655-.294-.608-.74.295-2.805-.807-7.4-3.165-10.237-1.22-1.469-2.617-2.277-4.15-2.399-2.777-.221-3.976 1.226-4.157 2.532-.095.679.08 1.416.555 1.83.57-.487 1.867-1.426 3.472-1.528 2.125-.136 3.917 1.267 3.988 1.323l.587.469-.522.537c-.067.068-1.654 1.682-3.787 1.817-1.243.08-2.513-.365-3.553-1.021-1.435-.382-2.328-1.901-2.088-3.614.258-1.858 1.809-3.62 4.704-3.718-1.07-1.094-1.992-2.662-1.115-4.416 1.612-3.227 6.405-1.69 8.068.502m-12.134.904c-.75-.283-1.604-.282-2.384-.134.396.507 1.03 1.154 1.879 1.474.752.283 1.603.28 2.385.133-.397-.508-1.032-1.155-1.88-1.473m3.213 2.516c-1.24.491-2.929.577-4.199.096-2-.753-3.047-2.76-3.09-2.847L0 40.902l.698-.274c1.244-.489 2.93-.576 4.2-.097 1.999.753 3.046 2.762 3.089 2.847l.342.668zm9.296 40.073c-2.781-7.041 1.397-9.293 3.604-14.813 5.019-12.544-.421-32.7-.655-33.553a.68.68 0 0 0-1.313.36c.055.205 5.555 20.564.705 32.687-2.436 6.094-6.37 7.69-3.564 15.647zM14.61 69.153c1.541-1.016 2.4-2.708 2.794-3.693-1.543-.038-3.191.255-4.496 1.115-1.542 1.017-2.4 2.708-2.793 3.692 1.53.05 3.21-.266 4.495-1.114m-2.45-3.715c1.674-1.103 4.285-1.584 6.276-1.261l.742.114-.185.727c-.038.141-.92 3.482-3.635 5.272-1.697 1.12-4.214 1.56-6.275 1.261l-.741-.115.186-.726c.036-.141.917-3.482 3.633-5.272m11.21 11.302c-.325-1.52-1.362-2.721-2.046-3.376-.355.879-.804 2.404-.477 3.922.328 1.518 1.365 2.722 2.051 3.376.353-.875.803-2.395.473-3.922m.35 5.358-.374.65-.61-.436c-.107-.077-2.608-1.894-3.22-4.74-.615-2.846.915-5.535.981-5.649l.376-.648.61.436c.105.078 2.605 1.897 3.217 4.741.615 2.847-.914 5.535-.98 5.646M86.46 40.514c-.082.623-.288 1.417-.788 2.077-.544.716-1.347 1.142-1.95 1.38.066-.64.262-1.527.81-2.248.59-.777 1.059-1.022 1.928-1.21m3.09 11.295c-.896-.056-1.693-.486-2.222-.857.575-.3 1.413-.627 2.314-.57.897.057 1.696.488 2.227.858-.573.3-1.413.63-2.318.57M83.446 40.9c-1.292 1.703-1.11 3.958-1.102 4.055l.067.745.736-.136c.095-.019 2.316-.45 3.608-2.152.891-1.174 1.082-2.613 1.112-3.424 1.063-.236 1.92-.01 2.432 1.018.997 1.993-1.518 3.523-2.732 4.288-1.05.663-2.21 1.274-3.165 2.422-2.585 3.114-3.796 8.164-3.471 11.247.047.449.41.637.747.6.339-.035.654-.294.607-.74-.295-2.805.807-7.4 3.164-10.237 1.222-1.469 2.618-2.277 4.152-2.399 2.776-.221 3.975 1.226 4.157 2.532.094.679-.08 1.416-.554 1.83-.572-.487-1.869-1.426-3.476-1.528-2.122-.136-3.915 1.267-3.988 1.323l-.585.469.52.537c.068.068 1.657 1.682 3.79 1.817 1.242.08 2.513-.365 3.552-1.021 1.435-.382 2.326-1.901 2.089-3.614-.26-1.858-1.81-3.62-4.706-3.718 1.072-1.094 1.993-2.662 1.116-4.416-1.61-3.227-6.405-1.69-8.07.502m12.136.904c.75-.283 1.604-.282 2.386-.134-.396.507-1.033 1.154-1.88 1.474-.751.283-1.604.28-2.385.133.396-.508 1.031-1.155 1.88-1.473m-3.213 2.516c1.24.491 2.928.577 4.199.096 1.999-.753 3.044-2.76 3.089-2.847l.342-.668-.697-.274c-1.245-.489-2.931-.576-4.2-.097-2 .753-3.047 2.762-3.09 2.847l-.342.668zm-9.298 40.073c2.782-7.041-1.396-9.293-3.604-14.813-5.018-12.544.422-32.7.657-33.553a.68.68 0 1 1 1.311.361c-.054.204-5.554 20.563-.703 32.686 2.435 6.094 6.368 7.69 3.562 15.647zm2.317-15.241c-1.541-1.016-2.4-2.708-2.795-3.693 1.544-.038 3.19.255 4.497 1.115 1.54 1.017 2.4 2.708 2.793 3.692-1.531.05-3.21-.266-4.495-1.114m2.45-3.715c-1.673-1.103-4.285-1.584-6.277-1.261l-.741.114.186.727c.035.141.92 3.482 3.633 5.272 1.698 1.12 4.215 1.56 6.278 1.261l.74-.115-.186-.726c-.037-.141-.92-3.482-3.632-5.272M76.626 76.74c.327-1.52 1.365-2.721 2.048-3.376.355.879.804 2.404.475 3.922-.326 1.518-1.365 2.722-2.048 3.376-.356-.875-.804-2.395-.475-3.922m-.35 5.358.377.65.61-.436c.105-.077 2.606-1.894 3.217-4.74.616-2.846-.913-5.535-.979-5.649l-.377-.648-.61.436c-.105.078-2.605 1.897-3.218 4.741-.614 2.847.916 5.535.98 5.646"/></svg>